<?xml version="1.0" standalone="no"?>
<!DOCTYPE svg PUBLIC "-//W3C//DTD SVG 20010904//EN"
 "http://www.w3.org/TR/2001/REC-SVG-20010904/DTD/svg10.dtd">
<svg version="1.0" xmlns="http://www.w3.org/2000/svg"
 width="80.000000pt" height="80.000000pt" viewBox="0 0 80.000000 80.000000"
 preserveAspectRatio="xMidYMid meet">
<metadata>
Created by potrace 1.11, written by Peter Selinger 2001-2013
</metadata>
<g transform="translate(0.000000,80.000000) scale(0.100000,-0.100000)"
fill="#000000" stroke="none">
<path d="M0 400 l0 -400 400 0 400 0 0 400 0 400 -400 0 -400 0 0 -400z m408
228 c-2 -25 -8 -34 -25 -36 -23 -3 -23 -5 -23 -178 l0 -174 65 0 65 0 0 30 c0
29 2 30 45 30 l45 0 0 -70 0 -70 -191 0 -190 0 3 32 c2 26 8 34 26 36 l22 3
-2 177 c-3 175 -3 177 -25 180 -19 3 -23 10 -23 38 l0 34 106 0 105 0 -3 -32z"/>
</g>
</svg>
